<svg id="Capa_1" enable-background="new 0 0 512 512" height="512" viewBox="0 0 512 512" width="512" xmlns="http://www.w3.org/2000/svg"><g><path d="m466 0c-28.525 0-55.468 0-79.584 6.061-24.829 6.24-43.651 18.423-57.254 37.086-24.135-8.849-48.746-13.147-73.162-13.147-24.456 0-49.069 4.313-73.162 13.148-13.602-18.664-32.424-30.846-57.254-37.086-24.116-6.062-51.059-6.062-79.584-6.062-8.284 0-15 6.716-15 15v226c0 48.452 23.826 88.08 68.901 114.601 26.644 15.676 59.992 26.342 98.222 31.603-11.72 13.779-18.123 30.874-18.123 48.796 0 41.295 34.378 76 76 76 41.295 0 76-34.378 76-76 0-17.922-6.403-35.017-18.123-48.796 38.229-5.261 71.578-15.927 98.222-31.603 45.075-26.521 68.901-66.149 68.901-114.601v-226c0-8.284-6.716-15-15-15zm-405 30.063c43.651.443 73.962 3.77 93.518 25.7-37.429 19.755-70.654 50.4-93.518 87.633zm241 405.937c0 19.711-13.168 36.993-31 43.373v-43.373c0-8.284-6.716-15-15-15s-15 6.716-15 15v43.373c-17.832-6.381-31-23.663-31-43.373 0-21.904 16.258-40.817 37.112-45.092 6.505.122 11.261.122 17.775 0 20.855 4.275 37.113 23.188 37.113 45.092zm-34.79-75.155c-7.424-1.125-14.985-1.127-22.42 0-22.58-.605-183.193-5.576-183.193-119.845 0-61.523 41.914-107.114 56.462-121.511 18.898-18.702 40.229-33.294 62.941-43.353v28.864c0 8.284 6.716 15 15 15s15-6.716 15-15v-39.286c9.864-2.522 19.888-4.226 30-5.075v44.361c0 8.284 6.716 15 15 15s15-6.716 15-15v-44.361c10.112.848 20.136 2.553 30 5.075v39.286c0 8.284 6.716 15 15 15s15-6.716 15-15v-28.864c22.712 10.059 44.044 24.651 62.941 43.353 14.547 14.397 56.462 59.988 56.462 121.511 0 114.268-160.612 119.24-183.193 119.845zm90.272-305.082c19.555-21.93 49.866-25.257 93.518-25.7v113.333c-22.113-36.01-54.801-67.199-93.518-87.633z"/><path d="m185.394 176.607c5.857 5.857 15.355 5.858 21.213 0s5.858-15.355 0-21.213c-10.846-10.846-25.267-16.82-40.606-16.82s-29.76 5.973-40.606 16.82c-5.858 5.858-5.858 15.355 0 21.213 5.857 5.858 15.355 5.858 21.213 0 5.18-5.18 12.068-8.033 19.394-8.033 7.324 0 14.211 2.852 19.392 8.033z"/><path d="m346 138.574c-15.339 0-29.76 5.973-40.606 16.82-5.858 5.858-5.858 15.355 0 21.213 5.857 5.858 15.355 5.858 21.213 0 5.18-5.18 12.068-8.033 19.394-8.033s14.213 2.853 19.394 8.033c5.857 5.857 15.355 5.858 21.213 0s5.858-15.355 0-21.213c-10.848-10.847-25.269-16.82-40.608-16.82z"/><path d="m346 256c-8.284 0-15 6.716-15 15 0 16.542-13.458 30-30 30s-30-13.458-30-30v-2.58c17.459-6.192 30-22.865 30-42.42 0-8.942-2.681-16.137-7.969-21.384-8.895-8.826-21.237-8.729-33.181-8.636-2.52.02-5.181.02-7.7 0-11.937-.093-24.286-.189-33.181 8.636-5.288 5.247-7.969 12.442-7.969 21.384 0 19.555 12.541 36.228 30 42.42v2.58c0 16.542-13.458 30-30 30s-30-13.458-30-30c0-8.284-6.716-15-15-15s-15 6.716-15 15c0 33.084 26.916 60 60 60 17.908 0 33.997-7.896 45-20.377 11.003 12.481 27.092 20.377 45 20.377 33.084 0 60-26.916 60-60 0-8.284-6.716-15-15-15zm-94.084-30.021c2.673.021 5.496.021 8.169 0 3.375-.026 8.083-.063 10.914.278-.139 8.153-6.814 14.743-14.999 14.743s-14.86-6.59-14.998-14.743c2.83-.341 7.539-.304 10.914-.278z"/></g></svg>